<svg id="visual" viewBox="0 0 900 600" width="900" height="600" xmlns="http://www.w3.org/2000/svg" xmlns:xlink="http://www.w3.org/1999/xlink" version="1.1"><rect x="0" y="0" width="900" height="600" fill="#001122"></rect><defs><linearGradient id="grad1_0" x1="33.3%" y1="0%" x2="100%" y2="100%"><stop offset="20%" stop-color="#ffffff" stop-opacity="1"></stop><stop offset="80%" stop-color="#ffffff" stop-opacity="1"></stop></linearGradient></defs><defs><linearGradient id="grad1_1" x1="33.3%" y1="0%" x2="100%" y2="100%"><stop offset="20%" stop-color="#ffffff" stop-opacity="1"></stop><stop offset="80%" stop-color="#777d88" stop-opacity="1"></stop></linearGradient></defs><defs><linearGradient id="grad1_2" x1="33.3%" y1="0%" x2="100%" y2="100%"><stop offset="20%" stop-color="#001122" stop-opacity="1"></stop><stop offset="80%" stop-color="#777d88" stop-opacity="1"></stop></linearGradient></defs><defs><linearGradient id="grad2_0" x1="0%" y1="0%" x2="66.7%" y2="100%"><stop offset="20%" stop-color="#ffffff" stop-opacity="1"></stop><stop offset="80%" stop-color="#ffffff" stop-opacity="1"></stop></linearGradient></defs><defs><linearGradient id="grad2_1" x1="0%" y1="0%" x2="66.7%" y2="100%"><stop offset="20%" stop-color="#777d88" stop-opacity="1"></stop><stop offset="80%" stop-color="#ffffff" stop-opacity="1"></stop></linearGradient></defs><defs><linearGradient id="grad2_2" x1="0%" y1="0%" x2="66.7%" y2="100%"><stop offset="20%" stop-color="#777d88" stop-opacity="1"></stop><stop offset="80%" stop-color="#001122" stop-opacity="1"></stop></linearGradient></defs><g transform="translate(900, 0)"><path d="M0 405.6C-76.2 398 -152.4 390.5 -202.8 351.3C-253.2 312.1 -277.9 241.3 -307.4 177.5C-336.9 113.7 -371.3 56.8 -405.6 0L0 0Z" fill="#3a4452"></path><path d="M0 270.4C-50.8 265.4 -101.6 260.3 -135.2 234.2C-168.8 208.1 -185.3 160.9 -205 118.3C-224.6 75.8 -247.5 37.9 -270.4 0L0 0Z" fill="#b9bcc2"></path><path d="M0 135.2C-25.4 132.7 -50.8 130.2 -67.6 117.1C-84.4 104 -92.6 80.4 -102.5 59.2C-112.3 37.9 -123.8 18.9 -135.2 0L0 0Z" fill="#ffffff"></path></g><g transform="translate(0, 600)"><path d="M0 -405.6C78.5 -399.4 157 -393.1 202.8 -351.3C248.6 -309.4 261.8 -232 290.1 -167.5C318.5 -103 362 -51.5 405.6 0L0 0Z" fill="#3a4452"></path><path d="M0 -270.4C52.3 -266.3 104.7 -262.1 135.2 -234.2C165.8 -206.3 174.5 -154.7 193.4 -111.7C212.3 -68.7 241.4 -34.3 270.4 0L0 0Z" fill="#b9bcc2"></path><path d="M0 -135.2C26.2 -133.1 52.3 -131 67.6 -117.1C82.9 -103.1 87.3 -77.3 96.7 -55.8C106.2 -34.3 120.7 -17.2 135.2 0L0 0Z" fill="#ffffff"></path></g></svg>