<svg id="visual" viewBox="0 0 960 600" width="960" height="600" xmlns="http://www.w3.org/2000/svg" xmlns:xlink="http://www.w3.org/1999/xlink" version="1.1"><path d="M0 392L22.8 398.3C45.7 404.7 91.3 417.3 137 424C182.7 430.7 228.3 431.3 274 427.3C319.7 423.3 365.3 414.7 411.2 403C457 391.3 503 376.7 548.8 380.5C594.7 384.3 640.3 406.7 686 419.8C731.7 433 777.3 437 823 433.7C868.7 430.3 914.3 419.7 937.2 414.3L960 409L960 601L937.2 601C914.3 601 868.7 601 823 601C777.3 601 731.7 601 686 601C640.3 601 594.7 601 548.8 601C503 601 457 601 411.2 601C365.3 601 319.7 601 274 601C228.3 601 182.7 601 137 601C91.3 601 45.7 601 22.8 601L0 601Z" fill="#4e4e4e"></path><path d="M0 418L22.8 424.7C45.7 431.3 91.3 444.7 137 450.8C182.7 457 228.3 456 274 446C319.7 436 365.3 417 411.2 419.8C457 422.7 503 447.3 548.8 459.8C594.7 472.3 640.3 472.7 686 461.8C731.7 451 777.3 429 823 429.2C868.7 429.3 914.3 451.7 937.2 462.8L960 474L960 601L937.2 601C914.3 601 868.7 601 823 601C777.3 601 731.7 601 686 601C640.3 601 594.7 601 548.8 601C503 601 457 601 411.2 601C365.3 601 319.7 601 274 601C228.3 601 182.7 601 137 601C91.3 601 45.7 601 22.8 601L0 601Z" fill="#676767"></path><path d="M0 495L22.8 485.5C45.7 476 91.3 457 137 448.7C182.7 440.3 228.3 442.7 274 451.7C319.7 460.7 365.3 476.3 411.2 482.7C457 489 503 486 548.8 485C594.7 484 640.3 485 686 488.5C731.7 492 777.3 498 823 494.8C868.7 491.7 914.3 479.3 937.2 473.2L960 467L960 601L937.2 601C914.3 601 868.7 601 823 601C777.3 601 731.7 601 686 601C640.3 601 594.7 601 548.8 601C503 601 457 601 411.2 601C365.3 601 319.7 601 274 601C228.3 601 182.7 601 137 601C91.3 601 45.7 601 22.8 601L0 601Z" fill="#828282"></path><path d="M0 516L22.8 518.2C45.7 520.3 91.3 524.7 137 519.2C182.7 513.7 228.3 498.3 274 491.2C319.7 484 365.3 485 411.2 488.5C457 492 503 498 548.8 506.8C594.7 515.7 640.3 527.3 686 533.7C731.7 540 777.3 541 823 536.3C868.7 531.7 914.3 521.3 937.2 516.2L960 511L960 601L937.2 601C914.3 601 868.7 601 823 601C777.3 601 731.7 601 686 601C640.3 601 594.7 601 548.8 601C503 601 457 601 411.2 601C365.3 601 319.7 601 274 601C228.3 601 182.7 601 137 601C91.3 601 45.7 601 22.8 601L0 601Z" fill="#9e9e9e"></path><path d="M0 539L22.8 544.7C45.7 550.3 91.3 561.7 137 565.3C182.7 569 228.3 565 274 563.2C319.7 561.3 365.3 561.7 411.2 563.3C457 565 503 568 548.8 567.8C594.7 567.7 640.3 564.3 686 559.7C731.7 555 777.3 549 823 548.3C868.7 547.7 914.3 552.3 937.2 554.7L960 557L960 601L937.2 601C914.3 601 868.7 601 823 601C777.3 601 731.7 601 686 601C640.3 601 594.7 601 548.8 601C503 601 457 601 411.2 601C365.3 601 319.7 601 274 601C228.3 601 182.7 601 137 601C91.3 601 45.7 601 22.8 601L0 601Z" fill="#bbbbbb"></path></svg>