<svg id="visual" viewBox="0 0 900 600" width="900" height="600" xmlns="http://www.w3.org/2000/svg" xmlns:xlink="http://www.w3.org/1999/xlink" version="1.1"><rect x="0" y="0" width="900" height="600" fill="#001220"></rect><path d="M0 502L21.5 503C43 504 86 506 128.8 507.3C171.7 508.7 214.3 509.3 257.2 508.3C300 507.3 343 504.7 385.8 506.2C428.7 507.7 471.3 513.3 514.2 518.7C557 524 600 529 642.8 531C685.7 533 728.3 532 771.2 526.3C814 520.7 857 510.3 878.5 505.2L900 500L900 601L878.5 601C857 601 814 601 771.2 601C728.3 601 685.7 601 642.8 601C600 601 557 601 514.2 601C471.3 601 428.7 601 385.8 601C343 601 300 601 257.2 601C214.3 601 171.7 601 128.8 601C86 601 43 601 21.5 601L0 601Z" fill="#eeeeee"></path><path d="M0 518L21.5 521.8C43 525.7 86 533.3 128.8 536C171.7 538.7 214.3 536.3 257.2 534C300 531.7 343 529.3 385.8 531.5C428.7 533.7 471.3 540.3 514.2 539.8C557 539.3 600 531.7 642.8 531.2C685.7 530.7 728.3 537.3 771.2 538.7C814 540 857 536 878.5 534L900 532L900 601L878.5 601C857 601 814 601 771.2 601C728.3 601 685.7 601 642.8 601C600 601 557 601 514.2 601C471.3 601 428.7 601 385.8 601C343 601 300 601 257.2 601C214.3 601 171.7 601 128.8 601C86 601 43 601 21.5 601L0 601Z" fill="#f6f6f6"></path><path d="M0 539L21.5 542.2C43 545.3 86 551.7 128.8 555.7C171.7 559.7 214.3 561.3 257.2 557.5C300 553.7 343 544.3 385.8 540.5C428.7 536.7 471.3 538.3 514.2 541.5C557 544.7 600 549.3 642.8 551.3C685.7 553.3 728.3 552.7 771.2 551C814 549.3 857 546.7 878.5 545.3L900 544L900 601L878.5 601C857 601 814 601 771.2 601C728.3 601 685.7 601 642.8 601C600 601 557 601 514.2 601C471.3 601 428.7 601 385.8 601C343 601 300 601 257.2 601C214.3 601 171.7 601 128.8 601C86 601 43 601 21.5 601L0 601Z" fill="#ffffff"></path><path d="M0 556L21.5 557C43 558 86 560 128.8 562.3C171.7 564.7 214.3 567.3 257.2 567.2C300 567 343 564 385.8 564.5C428.7 565 471.3 569 514.2 569C557 569 600 565 642.8 562.2C685.7 559.3 728.3 557.7 771.2 558C814 558.3 857 560.7 878.5 561.8L900 563L900 601L878.5 601C857 601 814 601 771.2 601C728.3 601 685.7 601 642.8 601C600 601 557 601 514.2 601C471.3 601 428.7 601 385.8 601C343 601 300 601 257.2 601C214.3 601 171.7 601 128.8 601C86 601 43 601 21.5 601L0 601Z" fill="#ffffff"></path><path d="M0 582L21.5 581.8C43 581.7 86 581.3 128.8 580.8C171.7 580.3 214.3 579.7 257.2 577.7C300 575.7 343 572.3 385.8 572.2C428.7 572 471.3 575 514.2 576.8C557 578.7 600 579.3 642.8 578C685.7 576.7 728.3 573.3 771.2 572C814 570.7 857 571.3 878.5 571.7L900 572L900 601L878.5 601C857 601 814 601 771.2 601C728.3 601 685.7 601 642.8 601C600 601 557 601 514.2 601C471.3 601 428.7 601 385.8 601C343 601 300 601 257.2 601C214.3 601 171.7 601 128.8 601C86 601 43 601 21.5 601L0 601Z" fill="#ffffff"></path></svg>