<svg id="visual" viewBox="0 0 900 600" width="900" height="600" xmlns="http://www.w3.org/2000/svg" xmlns:xlink="http://www.w3.org/1999/xlink" version="1.1"><path d="M0 127L75 140C150 153 300 179 450 190C600 201 750 197 825 195L900 193L900 0L825 0C750 0 600 0 450 0C300 0 150 0 75 0L0 0Z" fill="#001122"></path><path d="M0 463L75 472C150 481 300 499 450 501C600 503 750 489 825 482L900 475L900 191L825 193C750 195 600 199 450 188C300 177 150 151 75 138L0 125Z" fill="#777d88"></path><path d="M0 601L75 601C150 601 300 601 450 601C600 601 750 601 825 601L900 601L900 473L825 480C750 487 600 501 450 499C300 497 150 479 75 470L0 461Z" fill="#ffffff"></path></svg>