<svg id="visual" viewBox="0 0 900 600" width="900" height="600" xmlns="http://www.w3.org/2000/svg" xmlns:xlink="http://www.w3.org/1999/xlink" version="1.1"><path d="M0 49L50 78C100 107 200 165 300 219C400 273 500 323 600 327C700 331 800 289 850 268L900 247L900 0L850 0C800 0 700 0 600 0C500 0 400 0 300 0C200 0 100 0 50 0L0 0Z" fill="#001122"></path><path d="M0 49L50 82C100 115 200 181 300 238C400 295 500 343 600 350C700 357 800 323 850 306L900 289L900 245L850 266C800 287 700 329 600 325C500 321 400 271 300 217C200 163 100 105 50 76L0 47Z" fill="#2f3948"></path><path d="M0 139L50 175C100 211 200 283 300 329C400 375 500 395 600 394C700 393 800 371 850 360L900 349L900 287L850 304C800 321 700 355 600 348C500 341 400 293 300 236C200 179 100 113 50 80L0 47Z" fill="#5e6572"></path><path d="M0 217L50 249C100 281 200 345 300 386C400 427 500 445 600 449C700 453 800 443 850 438L900 433L900 347L850 358C800 369 700 391 600 392C500 393 400 373 300 327C200 281 100 209 50 173L0 137Z" fill="#91969f"></path><path d="M0 577L50 570C100 563 200 549 300 551C400 553 500 571 600 559C700 547 800 505 850 484L900 463L900 431L850 436C800 441 700 451 600 447C500 443 400 425 300 384C200 343 100 279 50 247L0 215Z" fill="#c7c9ce"></path><path d="M0 601L50 601C100 601 200 601 300 601C400 601 500 601 600 601C700 601 800 601 850 601L900 601L900 461L850 482C800 503 700 545 600 557C500 569 400 551 300 549C200 547 100 561 50 568L0 575Z" fill="#ffffff"></path></svg>