<svg id="visual" viewBox="0 0 900 600" width="900" height="600" xmlns="http://www.w3.org/2000/svg" xmlns:xlink="http://www.w3.org/1999/xlink" version="1.1"><rect x="0" y="0" width="900" height="600" fill="#00111a"></rect><path d="M0 565L21.5 567.5C43 570 86 575 128.8 577C171.7 579 214.3 578 257.2 578.5C300 579 343 581 385.8 577.7C428.7 574.3 471.3 565.7 514.2 564.7C557 563.7 600 570.3 642.8 570C685.7 569.7 728.3 562.3 771.2 559C814 555.7 857 556.3 878.5 556.7L900 557L900 601L878.5 601C857 601 814 601 771.2 601C728.3 601 685.7 601 642.8 601C600 601 557 601 514.2 601C471.3 601 428.7 601 385.8 601C343 601 300 601 257.2 601C214.3 601 171.7 601 128.8 601C86 601 43 601 21.5 601L0 601Z" fill="#a4a4a4" stroke-linecap="round" stroke-linejoin="miter"></path></svg>